HIERARCHY
ROOT hip
{
	OFFSET 0.000000 0.000000 0.000000 
	CHANNELS 6 Xposition Yposition Zposition Xrotation Zrotation Yrotation
	JOINT abdomen
	{
		OFFSET 0.000000 3.402643 0.000000 
		CHANNELS 3 Xrotation Zrotation Yrotation
		JOINT chest
		{
			OFFSET 0.000000 8.438565 -0.680529 
			CHANNELS 3 Xrotation Zrotation Yrotation
			JOINT neck
			{
				OFFSET 0.000000 10.207942 -0.272212 
				CHANNELS 3 Xrotation Zrotation Yrotation
				JOINT head
				{
					OFFSET 0.000000 3.130431 0.000000 
					CHANNELS 3 Xrotation Zrotation Yrotation
					End Site
					{
						OFFSET 0.000000 3.130435 0.000000 
					}
				}
			}
			JOINT lCollar
			{
				OFFSET 3.470700 6.669187 -0.816635 
				CHANNELS 3 Yrotation Zrotation Xrotation
				JOINT lShldr
				{
					OFFSET 3.198488 0.000000 0.000000 
					CHANNELS 3 Zrotation Yrotation Xrotation
					JOINT lForeArm
					{
						OFFSET 10.139888 0.000000 0.000000 
						CHANNELS 3 Yrotation Zrotation Xrotation
						JOINT lHand
						{
							OFFSET 8.370511 0.000000 0.000000 
							CHANNELS 3 Zrotation Yrotation Xrotation
							End Site
							{
								OFFSET 4.083176 0.000000 0.000000 
							}
						}
					}
				}
			}
			JOINT rCollar
			{
				OFFSET -3.470700 6.669187 -0.816635 
				CHANNELS 3 Yrotation Zrotation Xrotation
				JOINT rShldr
				{
					OFFSET -3.198488 0.000000 0.000000 
					CHANNELS 3 Zrotation Yrotation Xrotation
					JOINT rForeArm
					{
						OFFSET -10.139888 0.000000 0.000000 
						CHANNELS 3 Yrotation Zrotation Xrotation
						JOINT rHand
						{
							OFFSET -8.370511 0.000000 0.000000 
							CHANNELS 3 Zrotation Yrotation Xrotation
							End Site
							{
								OFFSET -4.083176 0.000000 0.000000 
							}
						}
					}
				}
			}
		}
	}
	JOINT lThigh
	{
		OFFSET 5.308129 -1.633274 1.361059 
		CHANNELS 3 Xrotation Zrotation Yrotation
		JOINT lShin
		{
			OFFSET -2.041588 -20.007561 0.000000 
			CHANNELS 3 Xrotation Zrotation Yrotation
			JOINT lFoot
			{
				OFFSET 0.000000 -19.190928 -1.224953 
				CHANNELS 3 Xrotation Yrotation Zrotation
				End Site
				{
					OFFSET 0.000000 -2.449906 4.627600 
				}
			}
		}
	}
	JOINT rThigh
	{
		OFFSET -5.308129 -1.633274 1.361059 
		CHANNELS 3 Xrotation Zrotation Yrotation
		JOINT rShin
		{
			OFFSET 2.041588 -20.007561 0.000000 
			CHANNELS 3 Xrotation Zrotation Yrotation
			JOINT rFoot
			{
				OFFSET 0.000000 -19.190928 -1.224953 
				CHANNELS 3 Xrotation Yrotation Zrotation
				End Site
				{
					OFFSET 0.000000 -2.449906 4.627600 
				}
			}
		}
	}
}
MOTION
Frames: 13
Frame Time: 0.033333
51.042976 149.389435 34.447662 4.086529 -12.196409 93.665405 22.666111 -0.214318 0.069126 -20.839844 0.000000 0.000000 36.836765 -9.321578 4.102766 -2.520832 -1.255077 0.218355 -4.754609 -0.109184 -0.002653 -69.045898 7.184643 36.658245 -68.711906 -0.017164 18.353123 15.312325 -21.216465 -2.201077 4.754609 0.109184 -0.002672 68.814384 14.733024 59.937077 103.316139 -0.968778 36.243324 -28.739332 -3.576182 1.197693 -17.896528 -2.099209 -5.363824 -1.464321 -4.363629 -5.160426 6.243166 0.004934 1.904857 -33.295036 -3.818271 2.639264 35.160702 1.922231 -13.734131 -6.366925 -0.179211 -6.469361 
51.102882 149.386398 34.884262 3.616015 -12.846319 100.589928 22.656277 -0.101953 0.020887 -20.839844 0.000000 0.000000 37.237473 -7.520289 2.237914 -2.520832 -1.255077 0.218355 -4.754609 -0.109184 -0.002653 -69.432724 6.868341 36.793373 -69.465271 -0.053961 15.862795 13.816938 -22.042345 -2.015473 4.754609 0.109184 -0.002672 68.822716 13.191085 56.967834 103.725006 -0.894739 33.727654 -31.550987 -4.231088 1.498452 -18.598024 -2.899057 -5.738756 -0.868884 -4.559793 -9.251173 4.100002 -0.003883 -2.196162 -33.079559 -4.784810 3.009289 34.921284 1.786949 -16.353388 -7.585483 -0.550915 -3.958296 
51.110481 149.384857 35.347794 3.009073 -13.975603 106.331146 22.636713 -0.038872 0.047243 -20.839844 0.000000 0.000000 36.713512 -5.878931 0.916188 -2.520832 -1.255077 0.218355 -4.754609 -0.109184 -0.002653 -69.551956 6.506694 36.144970 -71.673965 -0.141434 9.129099 9.376781 -23.618824 -1.312312 4.754609 0.109184 -0.002672 68.618408 12.025811 54.423237 104.063812 -0.894581 33.661964 -33.584450 -4.658732 1.729643 -19.776285 -3.444724 -6.118721 -0.527519 -4.646420 -11.167943 2.067255 0.081201 -4.711327 -32.972462 -5.360806 3.611527 33.549648 1.711215 -18.398060 -7.932494 -0.982900 -1.396740 
51.034340 149.398560 35.799622 2.310160 -15.456779 110.476616 22.656221 0.010318 0.110076 -20.839844 0.000000 0.000000 35.778214 -4.963764 0.277979 -2.520832 -1.255077 0.218355 -4.754609 -0.109184 -0.002653 -69.479454 6.048028 34.646103 -73.958733 -0.198989 3.960674 6.571811 -24.622366 -0.799377 4.754609 0.109184 -0.002672 67.810051 11.646133 52.434509 104.328949 -0.909837 34.248707 -34.122921 -5.132714 1.890351 -21.291237 -3.660576 -6.306987 -0.370503 -4.557463 -9.484339 0.140595 0.180142 -5.381089 -33.111683 -5.722141 4.437746 30.812384 1.739263 -19.761971 -5.893221 -1.229957 -0.092913 
50.927223 149.388947 36.233170 1.797157 -16.984310 113.183044 22.734318 0.023417 0.157967 -20.839844 0.000000 0.000000 35.327286 -5.008616 0.206666 -2.520832 -1.255077 0.218355 -4.754609 -0.109184 -0.002653 -69.285950 5.412590 32.452030 -75.135643 -0.157258 6.567398 10.732100 -23.838261 -1.527726 4.754609 0.109184 -0.002672 66.371124 12.187434 51.204105 104.355438 -0.895853 33.504211 -34.478493 -6.414220 2.280844 -22.761911 -3.544490 -6.337234 -0.116934 -4.217666 -2.970866 -1.820259 0.241141 -5.063204 -33.389359 -6.288566 4.565638 27.624695 1.844813 -20.139780 -1.954292 -1.275439 -0.645485 
50.868813 149.302612 36.666733 1.573699 -18.294338 115.108757 22.812449 0.008846 0.141365 -20.839844 0.000000 0.000000 36.000877 -5.510280 0.373789 -2.520832 -1.255077 0.218355 -4.754609 -0.109184 -0.002653 -69.083946 4.445634 30.736681 -75.717026 -0.113192 9.979485 15.874755 -21.460093 -2.186841 4.754609 0.109184 -0.002672 64.799446 13.095290 50.538918 104.242607 -0.846285 31.582907 -35.987766 -8.455341 3.018822 -23.933285 -3.339895 -6.124564 0.138617 -3.780499 5.309706 -2.537056 0.211109 -3.664199 -34.124695 -6.991646 3.821466 26.030842 1.912102 -20.150534 0.835676 -1.265131 -1.885707 
50.877968 149.156403 37.076447 1.477559 -19.066381 116.917358 22.910126 -0.016751 0.098871 -20.839844 0.000000 0.000000 37.738472 -5.730424 0.443526 -2.520832 -1.255077 0.218355 -4.754609 -0.109184 -0.002653 -68.949837 3.259106 30.096283 -76.085861 -0.111064 9.927539 17.990810 -20.135900 -2.331008 4.754609 0.109184 -0.002672 63.731403 13.046648 49.686581 104.626038 -0.802596 30.267260 -37.572208 -10.797033 3.910096 -24.863138 -3.406243 -5.907695 0.430898 -3.568020 9.639712 -1.064909 0.037651 -1.305980 -35.358395 -7.626229 2.756648 26.868822 1.867385 -20.627728 1.803789 -1.248659 -2.558666 
50.944984 148.993958 37.422165 1.385634 -19.194016 118.733467 23.027328 -0.036781 0.069194 -20.839844 0.000000 0.000000 39.835682 -5.422853 0.628429 -2.520832 -1.255077 0.218355 -4.754609 -0.109184 -0.002653 -68.935150 2.228152 29.987074 -76.231781 -0.120165 9.147006 17.963905 -19.979275 -2.302351 4.754609 0.109184 -0.002672 63.366432 11.541850 48.233555 105.428970 -0.799379 30.188845 -38.294880 -12.415519 4.524945 -25.470201 -3.758152 -6.054307 0.772265 -3.588488 9.391313 1.113349 -0.036028 0.527861 -36.788715 -8.230804 1.140090 29.402950 1.762136 -21.030838 2.626813 -1.177678 -3.252851 
51.051582 148.841660 37.722702 1.197255 -18.882887 120.304573 23.134762 -0.047786 0.043250 -20.839844 0.000000 0.000000 41.669617 -4.797741 1.077741 -2.520832 -1.255077 0.218355 -4.754609 -0.109184 -0.002653 -68.975113 1.643386 29.973934 -76.462540 -0.117682 9.073476 17.248692 -20.143465 -2.216379 4.754609 0.109184 -0.002672 63.094494 9.314218 46.736073 106.719810 -0.791820 29.664858 -38.791950 -12.876318 4.737286 -25.730320 -4.032639 -6.376293 1.151351 -3.684072 7.569624 1.936670 -0.056485 1.546734 -38.438385 -8.650842 -0.508225 32.595673 1.678887 -20.630331 4.354979 -1.072269 -4.488705 
51.185127 148.734543 38.020226 0.864299 -18.357426 121.611015 23.222670 -0.057321 -0.013987 -20.839844 0.000000 0.000000 43.163757 -4.233162 1.510415 -2.520832 -1.255077 0.218355 -4.754609 -0.109184 -0.002653 -68.907883 1.503508 30.171373 -76.770737 -0.116318 9.241028 16.796101 -20.553080 -2.205179 4.754609 0.109184 -0.002672 62.582195 6.971880 45.422554 108.400452 -0.748617 28.069599 -39.449711 -12.476777 4.693345 -25.567480 -3.982615 -6.218833 1.357763 -3.777910 5.690624 0.875272 -0.077972 2.241415 -40.012051 -8.533949 -1.133752 34.964317 1.706477 -18.480614 6.095078 -0.950516 -5.626152 
51.355202 148.711685 38.329399 0.328198 -17.792696 123.199318 23.261709 -0.052953 -0.107725 -20.839844 0.000000 0.000000 44.362583 -3.746417 1.509474 -2.520832 -1.255077 0.218355 -4.754609 -0.109184 -0.002653 -68.604408 1.240777 30.923538 -76.671364 -0.121937 9.237452 16.656488 -21.540386 -2.310968 4.754609 0.109184 -0.002672 62.311359 4.558831 43.532021 109.683044 -0.704976 26.635616 -40.422516 -11.480547 4.483142 -25.038719 -3.593706 -5.810452 0.985107 -3.859237 4.088581 -0.832290 -0.084219 1.915391 -40.677547 -8.036466 -0.820199 34.672081 2.035208 -13.175319 5.605101 -0.707089 -5.755250 
51.557777 148.781738 38.613167 -0.378098 -17.128553 125.529221 23.251827 -0.002296 -0.213377 -20.839844 0.000000 0.000000 45.326122 -2.952030 1.077810 -2.520832 -1.255077 0.218355 -4.754609 -0.109184 -0.002653 -68.102036 0.478073 32.284588 -75.832222 -0.119701 9.044762 16.408016 -22.742147 -2.426324 4.754609 0.109184 -0.002672 62.422916 1.954309 41.105934 110.371826 -0.659538 25.111343 -41.563637 -10.316609 4.209569 -24.178713 -3.056721 -5.406284 0.235170 -3.916207 2.727759 -2.244323 -0.041824 0.709263 -39.531586 -7.391222 1.152335 30.364176 2.610603 -6.186498 3.439101 -0.379189 -3.982531 
51.800453 148.904083 38.833000 -1.016688 -16.149935 128.749329 23.271053 0.096134 -0.362249 -20.839844 0.000000 0.000000 46.241631 -1.506865 0.130920 -2.520832 -1.255077 0.218355 -4.754609 -0.109184 -0.002653 -67.917496 -0.729125 34.507057 -74.215790 -0.125388 9.010532 16.421574 -23.299416 -2.510329 4.754609 0.109184 -0.002672 62.703186 -1.186109 38.581783 110.682205 -0.593132 22.852539 -42.350819 -9.631323 4.045855 -22.973774 -2.626285 -4.721199 -0.409915 -4.000663 1.497519 -3.296472 0.024210 -0.496883 -36.198772 -7.060377 5.155917 22.711952 3.169597 -1.713029 2.330125 -0.177697 -2.177611 
